<svg class="animated" id="freepik_stories-brain-sides" xmlns="http://www.w3.org/2000/svg" viewBox="0 0 500 500" version="1.1" xmlns:xlink="http://www.w3.org/1999/xlink" xmlns:svgjs="http://svgjs.com/svgjs"><style>svg#freepik_stories-brain-sides:not(.animated) .animable {opacity: 0;}svg#freepik_stories-brain-sides.animated #freepik--painting-tools--inject-177 {animation: 1.5s Infinite  linear floating;animation-delay: 0.5s;}svg#freepik_stories-brain-sides.animated #freepik--musical-notes--inject-177 {animation: 1.5s Infinite  linear floating;animation-delay: 0.5s;}svg#freepik_stories-brain-sides.animated #freepik--brain-side-2--inject-177 {animation: 1s 1 forwards cubic-bezier(.36,-0.01,.5,1.38) slideRight,6s Infinite  linear floating;animation-delay: 0s,1s;}svg#freepik_stories-brain-sides.animated #freepik--light-bulb--inject-177 {animation: 3s Infinite  linear spin;animation-delay: 0s;}svg#freepik_stories-brain-sides.animated #freepik--Pencil--inject-177 {animation: 1.5s Infinite  linear floating;animation-delay: 0s;}svg#freepik_stories-brain-sides.animated #freepik--chemistry-icon--inject-177 {animation: 1.5s Infinite  linear floating;animation-delay: 0.5s;}svg#freepik_stories-brain-sides.animated #freepik--Puzzle--inject-177 {animation: 1.5s Infinite  linear floating;animation-delay: 0.5s;}svg#freepik_stories-brain-sides.animated #freepik--brain-side-1--inject-177 {animation: 1s 1 forwards cubic-bezier(.36,-0.01,.5,1.38) slideLeft,6s Infinite  linear floating;animation-delay: 0s,1s;}svg#freepik_stories-brain-sides.animated #freepik--chess-piece--inject-177 {animation: 1.5s Infinite  linear floating;animation-delay: 0s;}svg#freepik_stories-brain-sides.animated #freepik--Calculator--inject-177 {animation: 1.5s Infinite  linear floating;animation-delay: 0s;}            @keyframes floating {                0% {                    opacity: 1;                    transform: translateY(0px);                }                50% {                    transform: translateY(-10px);                }                100% {                    opacity: 1;                    transform: translateY(0px);                }            }                    @keyframes slideRight {                0% {                    opacity: 0;                    transform: translateX(30px);                }                100% {                    opacity: 1;                    transform: translateX(0);                }            }                 @keyframes spin {             from {                 transform: rotate(0);               }               to {                 transform: rotate(360deg);               }         }                 @keyframes slideLeft {                0% {                    opacity: 0;                    transform: translateX(-30px);                }                100% {                    opacity: 1;                    transform: translateX(0);                }            }        </style><g id="freepik--painting-tools--inject-177" class="animable" style="transform-origin: 373.995px 400.764px;"><path d="M431.52,437.22l-3.08.31c-7-6-25.59-10.59-24.52-14.56.2-.72,1.21-1.21,2.7-1.57,4.83-1.16,14.55-.92,16-2.5a43.19,43.19,0,0,0,.88-5.17l0-.15,0-.15h0l-12.63-1.51c-29.64-11.84-87-21.8-104.15-12.52l-4.05.64h0l-.08.6a1,1,0,0,0,0,.24l-.52,3.79c-6.25,23,124.88,53.74,128.87,38.1L431,442l.48-3.25.22-1.54Zm-44.65-27.15c5.59,1.09,9.76,3.82,9.32,6.1s-5.33,3.27-10.93,2.18-9.77-3.81-9.33-6.1S381.27,409,386.87,410.07Z" style="fill: rgb(0, 177, 249); transform-origin: 366.777px 421.391px;" id="el2bf9ulsrqmp" class="animable"></path><path d="M431.52,437.22c-1.19-6.58-18.78-11.54-24.9-15.82-1.48-1-2.3-2-2.05-3,.9-3.34,18.36-2.08,19-4.68a.24.24,0,0,0,0-.15.3.3,0,0,0,0-.16c-.11-.49-.77-1.13-2.16-1.92C394,395.74,308.08,379.81,302.72,400V400a4.42,4.42,0,0,0-.13.61,1,1,0,0,0,0,.24c-2.93,23.87,124.88,54.1,128.91,38a.7.7,0,0,1,0-.14l.07-.52A3,3,0,0,0,431.52,437.22Zm-55.59-25c.45-2.29,5.34-3.26,10.94-2.18s9.76,3.82,9.32,6.1-5.33,3.27-10.93,2.18S375.49,414.54,375.93,412.25Z" style="fill: rgb(0, 177, 249); transform-origin: 367.064px 416.939px;" id="el9fdfkobw35c" class="animable"></path><g id="elwjynfjazrds"><path d="M431.52,437.22c-1.19-6.58-18.78-11.54-24.9-15.82-1.48-1-2.3-2-2.05-3,.9-3.34,18.36-2.08,19-4.68a.24.24,0,0,0,0-.15.3.3,0,0,0,0-.16c-.11-.49-.77-1.13-2.16-1.92C394,395.74,308.08,379.81,302.72,400V400a4.42,4.42,0,0,0-.13.61,1,1,0,0,0,0,.24c-2.93,23.87,124.88,54.1,128.91,38a.7.7,0,0,1,0-.14l.07-.52A3,3,0,0,0,431.52,437.22Zm-55.59-25c.45-2.29,5.34-3.26,10.94-2.18,3.81.75,6.95,2.24,8.43,3.85a2.63,2.63,0,0,1,.89,2.25c-.44,2.3-5.33,3.27-10.93,2.18a21.73,21.73,0,0,1-5.51-1.8C377.19,415.29,375.65,413.69,375.93,412.25Z" style="opacity: 0.2; transform-origin: 367.064px 416.939px;" class="animable"></path></g><path d="M395.3,413.92a22.33,22.33,0,0,0-5.5-1.8c-5.6-1.08-10.48-.11-10.94,2.18a2.63,2.63,0,0,0,.89,2.25c-2.56-1.26-4.1-2.86-3.82-4.3.45-2.29,5.34-3.26,10.94-2.18C390.68,410.82,393.82,412.31,395.3,413.92Z" style="fill: rgb(0, 177, 249); transform-origin: 385.599px 413.089px;" id="elzkaqx1n2l1m" class="animable"></path><path d="M391,424.9a8.75,8.75,0,0,0-5.37,1.17,3.19,3.19,0,0,0-.69,5.06c3.16,3.34,13.12,5.34,15.55,0C402.7,426.35,395.81,424.86,391,424.9Z" style="fill: rgb(255, 255, 255); transform-origin: 392.452px 429.64px;" id="elhajlo0hoo7m" class="animable"></path><path d="M366,426.38l.6-.09a7.14,7.14,0,0,0,1.89-.41,4.07,4.07,0,0,0,1.56-1.09,1.84,1.84,0,0,0,.6-1.1,3.08,3.08,0,0,0-1.17-3.16c-1.44-1.28-3.47-1.59-5.22-2.32-2.56-1.08-4.06-3.13-6.89-3.59-3.13-.5-7.12.24-8.43,2.85C345.42,424.44,361.5,426.86,366,426.38Z" style="fill: rgb(0, 177, 249); transform-origin: 359.584px 420.456px;" id="el4wgegiptz3" class="animable"></path><path d="M361.56,399.76c2.1,4.43-4.26,6-7.33,5.54-2.81-.4-11.67-2.05-10.11-6.54.91-2.7,4.1-2.89,7-2.28C355.07,396.13,360.12,396.71,361.56,399.76Z" style="fill: rgb(0, 177, 249); transform-origin: 352.957px 400.785px;" id="elh9mzakmhsje" class="animable"></path><g id="elb9ttm82ctzj"><path d="M361.56,399.76c2.1,4.43-4.26,6-7.33,5.54-2.81-.4-11.67-2.05-10.11-6.54.91-2.7,4.1-2.89,7-2.28C355.07,396.13,360.12,396.71,361.56,399.76Z" style="fill: rgb(255, 255, 255); opacity: 0.4; transform-origin: 352.957px 400.785px;" class="animable"></path></g><path d="M319.1,398.87c-4.58,3.27-.92,9.05,2.95,10.83a41.82,41.82,0,0,0,9.61,2.62c2.09.36,4.46.09,5.51-2,2-4.14-1.88-6.91-5.73-8.52C327.64,398.81,322.75,396.26,319.1,398.87Z" style="fill: rgb(235, 235, 235); transform-origin: 327.342px 405.12px;" id="elldw442ater" class="animable"></path><path d="M377.18,404.23s14.26-12,28.49-25,38.92-25.37,40.39-24.71-18.83,20.28-34.29,31.39-31.83,21.34-31.83,21.34Z" style="fill: rgb(0, 177, 249); transform-origin: 411.658px 380.872px;" id="el4pdbcs40v7n" class="animable"></path><polygon points="376.73 404.33 386.18 395.63 390.36 401.18 379.7 407.99 376.73 404.33" style="fill: rgb(199, 199, 199); transform-origin: 383.545px 401.81px;" id="elkdp5i0uuwh" class="animable"></polygon><path d="M376.73,404.33a12.73,12.73,0,0,0-9.77,6.42c-3.42,5.53-7.65,6.18-7.65,6.18s14.31,3,20.39-8.94Z" style="fill: rgb(0, 177, 249); transform-origin: 369.505px 410.798px;" id="elvp00p27msqd" class="animable"></path><g id="el3wpf5npgwcb"><path d="M376.73,404.33a12.73,12.73,0,0,0-9.77,6.42c-3.42,5.53-7.65,6.18-7.65,6.18s14.31,3,20.39-8.94Z" style="opacity: 0.4; transform-origin: 369.505px 410.798px;" class="animable"></path></g><path d="M358.71,417.09c.52-.76,4.47-1.38,6.53-4.23,1.95-2.69,9.33,2.65,4.87,3.79C365,417.94,357.74,418.47,358.71,417.09Z" style="fill: rgb(0, 177, 249); transform-origin: 365.071px 415.008px;" id="elew5ofjx30xd" class="animable"></path></g><g id="freepik--musical-notes--inject-177" class="animable" style="transform-origin: 414.962px 185.884px;"><path d="M397.63,178.87a6.84,6.84,0,1,1-3.56-9A6.84,6.84,0,0,1,397.63,178.87Z" style="fill: rgb(0, 177, 249); transform-origin: 391.355px 176.148px;" id="elo54wm010xkh" class="animable"></path><g id="elh1hehqbas9w"><rect x="399.48" y="144.76" width="5.23" height="34.41" style="fill: rgb(0, 177, 249); transform-origin: 402.095px 161.965px; transform: rotate(23.38deg);" class="animable"></rect></g><path d="M421.92,178.52a6.84,6.84,0,1,1-3.56-9A6.85,6.85,0,0,1,421.92,178.52Z" style="fill: rgb(0, 177, 249); transform-origin: 415.643px 175.798px;" id="elms3bfx4pvu9" class="animable"></path><g id="ell1r032l0bb9"><rect x="423.77" y="144.41" width="5.23" height="34.41" style="fill: rgb(0, 177, 249); transform-origin: 426.385px 161.615px; transform: rotate(23.38deg);" class="animable"></rect></g><polygon points="435.59 146.93 404.7 149.36 406.52 145.13 437.41 142.71 435.59 146.93" style="fill: rgb(0, 177, 249); transform-origin: 421.055px 146.035px;" id="elag6y6uzzl0e" class="animable"></polygon><polygon points="432.14 154.89 401.25 157.32 403.08 153.09 433.97 150.67 432.14 154.89" style="fill: rgb(0, 177, 249); transform-origin: 417.61px 153.995px;" id="elye2i5lck51n" class="animable"></polygon><g id="elb8cxngsdb0g"><g style="opacity: 0.1; transform-origin: 410.962px 162.849px;" class="animable"><path d="M397.63,178.87a6.84,6.84,0,1,1-3.56-9A6.84,6.84,0,0,1,397.63,178.87Z" id="el7orbgghznty" class="animable" style="transform-origin: 391.355px 176.148px;"></path><g id="els7rq4a7z3u"><rect x="399.48" y="144.76" width="5.23" height="34.41" class="animable" style="transform-origin: 402.095px 161.965px; transform: rotate(23.38deg);"></rect></g><path d="M421.92,178.52a6.84,6.84,0,1,1-3.56-9A6.85,6.85,0,0,1,421.92,178.52Z" id="el8rniy75oxww" class="animable" style="transform-origin: 415.643px 175.798px;"></path><g id="eleoy0wbs1a8n"><rect x="423.77" y="144.41" width="5.23" height="34.41" class="animable" style="transform-origin: 426.385px 161.615px; transform: rotate(23.38deg);"></rect></g><polygon points="435.59 146.93 404.7 149.36 406.52 145.13 437.41 142.71 435.59 146.93" id="el8r7e0xqpo5d" class="animable" style="transform-origin: 421.055px 146.035px;"></polygon><polygon points="432.14 154.89 401.25 157.32 403.08 153.09 433.97 150.67 432.14 154.89" id="ela3krv4wtr8" class="animable" style="transform-origin: 417.61px 153.995px;"></polygon></g></g><path d="M425.74,224.85a5.15,5.15,0,1,1-4.09-6A5.15,5.15,0,0,1,425.74,224.85Z" style="fill: rgb(0, 177, 249); transform-origin: 420.677px 223.907px;" id="eljybjkwke27" class="animable"></path><g id="eledfrorzf2l"><rect x="424.28" y="198.79" width="3.93" height="25.87" style="fill: rgb(0, 177, 249); transform-origin: 426.245px 211.725px; transform: rotate(10.77deg);" class="animable"></rect></g><g id="el4tfgnx05yur"><rect x="440.35" y="194.9" width="3.93" height="7.48" style="fill: rgb(0, 177, 249); transform-origin: 442.315px 198.64px; transform: rotate(10.77deg);" class="animable"></rect></g><polygon points="444.76 196.31 426.08 202.04 426.73 198.65 445.41 192.91 444.76 196.31" style="fill: rgb(0, 177, 249); transform-origin: 435.745px 197.475px;" id="elsis3zi2xbqk" class="animable"></polygon><polygon points="443.54 202.71 424.86 208.45 425.51 205.05 444.19 199.32 443.54 202.71" style="fill: rgb(0, 177, 249); transform-origin: 434.525px 203.885px;" id="elum68x04kmil" class="animable"></polygon></g><g id="freepik--brain-side-2--inject-177" class="animable" style="transform-origin: 331.14px 249.965px;"><path d="M250,98V357.64c.31,1.22.58,2.25.82,3-.23,36.52,16.29,54,31.92,54.71.51,0,1,0,1.5,0A30.12,30.12,0,0,0,303,408.83a33.3,33.3,0,0,0,9.19,1.24,43.73,43.73,0,0,0,12.63-2c8.55-2.61,15-8.45,18.52-12.17,7.18-1.05,22-4.77,36.35-18.05,16.39-15.14,19.53-40.3,20.12-49.35,18.75-23.88,12.9-46.11,4.77-58.34,3.87-9,2.59-18.81.26-25.66a23.91,23.91,0,0,0,1.68-15.74c-1.88-7.84-7.4-13.68-11.83-17.27,3.63-18.2-3.32-30.42-10.23-37.71a49.12,49.12,0,0,0-10.85-8.51c2.86-19.82-8.14-31.07-16.73-36A36.71,36.71,0,0,0,336,102.16a50,50,0,0,0-14.4-4.3C315.25,91,305.47,87.42,293,87.42a63.69,63.69,0,0,0-6.72.35,28.27,28.27,0,0,0-12.78-3.19C263.94,84.58,255.18,89.88,250,98Z" style="fill: rgb(0, 177, 249); transform-origin: 331.14px 249.965px;" id="el39mvjym0jjw" class="animable"></path><path d="M260.94,135.39s-8.59-10.84-6.54-24.1,16.25-23.35,30.07-14.19c0,0,23.35-4.49,32.5,9.34,0,0,29.89.56,31.57,28.95,0,0,23,6.91,14.75,34.92,0,0,31.94,10.84,21.11,45,0,0,21.85,11.95,10.46,28.57,0,0,7.84,15.51-1.12,27.09,0,0,23.16,23.72-2.8,54.16,0,0-.19,30.26-17.37,46.14s-34.74,16.06-34.74,16.06-6.84,9.16-16.65,12.14c-13.92,4.23-21.27-1.31-21.27-1.31a21,21,0,0,1-17.74,8.22c-11.77-.56-23.91-16.81-23.35-47.07,0,0-10.65-29.69,8.78-56.78,0,0-20.55-26-3.36-55.1,0,0-7.48-4.85-8.6-17.74s11.21-26.15,11.21-26.15-6.35-18.3,0-29.32C267.85,174.24,252.53,161,260.94,135.39Z" style="fill: rgb(0, 177, 249); transform-origin: 328.668px 249.99px;" id="eletabg8x908" class="animable"></path><g id="elwedu97vckn"><path d="M260.94,135.39s-8.59-10.84-6.54-24.1,16.25-23.35,30.07-14.19c0,0,23.35-4.49,32.5,9.34,0,0,29.89.56,31.57,28.95,0,0,23,6.91,14.75,34.92,0,0,31.94,10.84,21.11,45,0,0,21.85,11.95,10.46,28.57,0,0,7.84,15.51-1.12,27.09,0,0,23.16,23.72-2.8,54.16,0,0-.19,30.26-17.37,46.14s-34.74,16.06-34.74,16.06-6.84,9.16-16.65,12.14c-13.92,4.23-21.27-1.31-21.27-1.31a21,21,0,0,1-17.74,8.22c-11.77-.56-23.91-16.81-23.35-47.07,0,0-10.65-29.69,8.78-56.78,0,0-20.55-26-3.36-55.1,0,0-7.48-4.85-8.6-17.74s11.21-26.15,11.21-26.15-6.35-18.3,0-29.32C267.85,174.24,252.53,161,260.94,135.39Z" style="fill: rgb(255, 255, 255); opacity: 0.4; transform-origin: 328.668px 249.99px;" class="animable"></path></g><g id="elrsokzgc3hg"><path d="M267.85,203.56s-12.33,13.27-11.2,26.15,8.58,17.74,8.58,17.74c-17.18,29.14,3.37,55.1,3.37,55.1-19.43,27.09-8.78,56.79-8.78,56.79-.56,30.26,11.58,46.5,23.35,47.06a21,21,0,0,0,17.74-8.22s7.34,5.54,21.26,1.32c9.82-3,16.66-12.15,16.66-12.15s17.55-.18,34.73-16.06c9.14-8.44,13.47-20.93,15.52-30.78-2.29,6.56-5.77,13.2-11.08,18.38-16.05,15.68-32.89,16.33-32.89,16.33s-6.32,9-15.65,12.1c-13.24,4.44-20.44-.68-20.44-.68a20.17,20.17,0,0,1-16.8,8.36c-11.31-.22-23.39-15.47-23.67-44.52,0,0-11-28.22,6.89-54.72,0,0-20.41-24.35-4.7-52.78,0,0-7.31-4.45-8.73-16.79s10.05-25.39,10.05-25.39-6.58-17.39-.79-28.14c0,0-15-12.31-7.68-37.08,0,0-8.53-10.17-6.92-23s15-22.83,28.47-14.42c0,0,22.28-4.94,31.43,8.08h.31c-9.22-13.66-32.4-9.2-32.4-9.2-13.83-9.15-28,.93-30.08,14.19s6.54,24.1,6.54,24.1c-8.4,25.58,6.91,38.85,6.91,38.85C261.5,185.25,267.85,203.56,267.85,203.56Z" style="fill: rgb(255, 255, 255); opacity: 0.3; transform-origin: 321.578px 249.972px;" class="animable"></path></g><path d="M394.86,243.9c-7,3.78-15.23,1.81-21.51-2.4a42.49,42.49,0,0,1-6.07-5.13A18,18,0,0,0,379.06,248c5.33,1.77,12.59.88,15.8-4.12Z" style="fill: rgb(0, 177, 249); transform-origin: 381.07px 242.603px;" id="eljtdjp67zm3" class="animable"></path><path d="M259.82,359.33c13.2,11.76,28.7,10.33,39.72-3.42-15.87,9.68-22.46,10.36-39.72,3.42Z" style="fill: rgb(0, 177, 249); transform-origin: 279.68px 361.591px;" id="elz0bz03jr69" class="animable"></path><path d="M338.83,387.35c9.16-5.43,11.79-18.34,8.53-28-1.61,9.61-3.22,19.57-8.53,28Z" style="fill: rgb(0, 177, 249); transform-origin: 343.765px 373.35px;" id="elqp3uu2fhb3a" class="animable"></path><path d="M393.74,271c-8.29,6.47-18.52,13.95-29.45,10.45a16.79,16.79,0,0,1-2.7-1.22c-.37-.23-1.15-.79-1.53-1,3.52,6.28,12.41,7.27,18.68,4.86a28.39,28.39,0,0,0,15-13.08Z" style="fill: rgb(0, 177, 249); transform-origin: 376.9px 278.149px;" id="el5amhbecigs5" class="animable"></path><path d="M348.54,135.39c-1,3.2-1.94,6.59-4.11,9.13l.48,1c3.33,6.75,4.15,14.64,1.2,21.73,4.87-4.24,5.94-11.58,4-17.54a20.93,20.93,0,0,0-2.76-5.74l0,1.59a15.67,15.67,0,0,0,1.25-10.15Z" style="fill: rgb(0, 177, 249); transform-origin: 347.726px 151.32px;" id="elkl2f8w61gx" class="animable"></path><path d="M363.29,170.31a81.38,81.38,0,0,1-9.71,12.52,13,13,0,0,0,9.71-12.52Z" style="fill: rgb(0, 177, 249); transform-origin: 358.435px 176.57px;" id="el54fwbhai2s" class="animable"></path><path d="M317,106.44c2.07,6.56,4.89,12.78,6.91,19.42,1.12-7-2.11-14.37-6.91-19.42Z" style="fill: rgb(0, 177, 249); transform-origin: 320.566px 116.15px;" id="elqofwwxbnb1a" class="animable"></path><path d="M291.66,124c4.94-8.86,2.31-22.24-7.19-26.89a50.8,50.8,0,0,1,3.55,6.27c3,6.49,3.47,13.49,3.64,20.62Z" style="fill: rgb(0, 177, 249); transform-origin: 289.286px 110.555px;" id="elpljnvyctzso" class="animable"></path><path d="M274.85,145.63c-5-2.93-9.88-6.07-13.91-10.24,1.42,6.05,7.85,10.29,13.91,10.24Z" style="fill: rgb(0, 177, 249); transform-origin: 267.895px 140.51px;" id="els5a73imzsrc" class="animable"></path><path d="M267.85,174.24a13.93,13.93,0,0,0,10.27,6.25,19.57,19.57,0,0,0-10.27-6.25Z" style="fill: rgb(0, 177, 249); transform-origin: 272.985px 177.365px;" id="eltrjf8gziwc" class="animable"></path><path d="M267.85,203.56c2.47,5.85,8.81,10.08,14.94,11.21-2.12-1.83-5.22-4-7.46-5.67s-5.28-3.81-7.48-5.54Z" style="fill: rgb(0, 177, 249); transform-origin: 275.32px 209.165px;" id="eloosci8gzyno" class="animable"></path><path d="M265.24,247.45c5,5.15,12.22,7.82,19.23,8.6-6-3.75-12.62-6.08-19.23-8.6Z" style="fill: rgb(0, 177, 249); transform-origin: 274.855px 251.75px;" id="eluhbv4k69oe" class="animable"></path><path d="M374.45,243.39a46.8,46.8,0,0,1-15.51,17.26c-12.74,8.13-30.62,7.54-42-2.87a58.31,58.31,0,0,1-13.73-18.94,44.76,44.76,0,0,0,11.34,21.45c8.74,9.51,22.94,12.48,35.16,8.93s21.59-13.86,24.75-25.83Z" style="fill: rgb(0, 177, 249); transform-origin: 338.835px 254.755px;" id="elqtyxcd8funs" class="animable"></path><path d="M337.39,238.61c10-13.11,10.16-33.15-1-45.68a42.35,42.35,0,0,0-12.55-10.1,73.74,73.74,0,0,1,10.46,11.7c9.41,12.87,9.14,29.74,3.05,44.08Z" style="fill: rgb(0, 177, 249); transform-origin: 334.334px 210.72px;" id="el6wlouv6b11y" class="animable"></path><path d="M370,195.53A18.53,18.53,0,0,0,341.78,206c1.5-1.44,2.84-3.05,4.39-4.37,6.39-6.11,15.3-7.37,23.85-6.12Z" style="fill: rgb(0, 177, 249); transform-origin: 355.9px 199.185px;" id="eluubjuq8w50h" class="animable"></path><path d="M315.29,139.12c-14.22,8.15-23.4,25.72-18.15,41.9a38.72,38.72,0,0,0,7.93,14,63,63,0,0,1-5.38-14.66c-3.56-15.59,4.6-30.58,15.6-41.25Z" style="fill: rgb(0, 177, 249); transform-origin: 305.468px 167.065px;" id="eluj4po5l4s4" class="animable"></path><path d="M299.18,160.6c1-8-6.76-15.66-14.71-15a58.37,58.37,0,0,1,8.28,6.58,48.68,48.68,0,0,1,6.43,8.39Z" style="fill: rgb(0, 177, 249); transform-origin: 291.869px 153.08px;" id="elc2e617q5g46" class="animable"></path><path d="M294.56,332.44c-18.47-8.9-26.95-24.3-18.92-44a61.3,61.3,0,0,1,9.77-15.73,38.17,38.17,0,0,0-10.41,10c-14.43,20.29-5.2,45.08,19.56,49.75Z" style="fill: rgb(0, 177, 249); transform-origin: 281.354px 302.585px;" id="eldiddg55g4xs" class="animable"></path><path d="M385.93,303.43c5.26,12.07,5.45,24.48-5.34,33.38a66.86,66.86,0,0,1-10.57,7c9.69-1.74,19.69-8.21,21.92-18.47,1.89-7.66-1-16.1-6-21.87Z" style="fill: rgb(0, 177, 249); transform-origin: 381.272px 323.62px;" id="elze3pb6uwf3" class="animable"></path><path d="M366.28,310c-14.95-7.55-34.92-5.12-45.08,9a38.63,38.63,0,0,0-6.65,14.87,61.91,61.91,0,0,1,8.68-13.2c10.7-12.38,27.8-14.15,43-10.71Z" style="fill: rgb(0, 177, 249); transform-origin: 340.415px 319.837px;" id="elyw6j2no3uh" class="animable"></path><path d="M329.51,313.13c4.25-12.49-1.44-29.4-15-33.18,10.6,8.18,14,20.33,15,33.18Z" style="fill: rgb(0, 177, 249); transform-origin: 322.702px 296.54px;" id="el1uxen4179heh" class="animable"></path><path d="M307.55,212.11c-16.81-8-33.66,2.71-34.56,21.13a59.26,59.26,0,0,1,5.31-10.1c6.42-10,18-12.52,29.25-11Z" style="fill: rgb(0, 177, 249); transform-origin: 290.27px 221.333px;" id="eldh5spgf53m" class="animable"></path><path d="M297.46,342.24c-4.77,19.21,9.05,32.64,27.82,24.65a53.42,53.42,0,0,1-11.22-.33c-12.4-1.68-15.75-13.39-16.6-24.32Z" style="fill: rgb(0, 177, 249); transform-origin: 310.895px 355.739px;" id="els6o3w4972" class="animable"></path><path d="M300.91,398.18a26.37,26.37,0,0,1-6.37-11.24l-2.34,1.67a15.73,15.73,0,0,0,7.07,2.6,15.35,15.35,0,0,0,13.27-5.38,22.25,22.25,0,0,0,3.69-5.95c-.88.78-1.7,1.57-2.48,2.36-5.69,5.25-12.65,7.67-19.82,3.85l-3.66-2,1.32,3.71a18.17,18.17,0,0,0,9.32,10.42Z" style="fill: rgb(0, 177, 249); transform-origin: 303.25px 389.05px;" id="elzctxma6aj7g" class="animable"></path></g><g id="freepik--light-bulb--inject-177" class="animable" style="transform-origin: 388.218px 93.1764px;"><g id="elr0gjntmgs3"><g style="opacity: 0.5; transform-origin: 388.729px 83.3355px;" class="animable"><path d="M423.65,95.19c-10.58,21.58-31.8,21-31.8,21-2.7,2.85-7.88,10.77-7.88,10.77l-24.79-9.79s1.63-9.32,1.6-13.25c0,0-15.91-14-8.89-37,4.88-16,24.95-34.51,50.91-24.26l.27.11C429,53,431,80.19,423.65,95.19Z" style="fill: rgb(0, 177, 249); transform-origin: 388.729px 83.3355px;" id="eljbvpq7kttco" class="animable"></path></g></g><g id="elj9zekd530jb"><g style="opacity: 0.7; transform-origin: 388.608px 84.8961px;" class="animable"><path d="M420.55,94.09a33.12,33.12,0,0,1-29.09,19.18c-2.47,2.6-8.55,13.23-8.55,13.23l-22.67-9s2.83-11.91,2.8-15.5c0,0-14.55-12.85-8.13-33.88C359.37,53.55,377.73,36.6,401.47,46l.25.09C425.46,55.46,427.27,80.38,420.55,94.09Z" style="fill: rgb(0, 177, 249); transform-origin: 388.608px 84.8961px;" id="el2fy1kdph6m" class="animable"></path></g></g><g id="el4t9c04q6snt"><rect x="347.44" y="99.3" width="42.68" height="3" style="fill: rgb(255, 255, 255); transform-origin: 368.78px 100.8px; transform: rotate(-79.0278deg);" class="animable"></rect></g><g id="el9usghyuwu7q"><rect x="366.78" y="106.94" width="42.68" height="3" style="fill: rgb(255, 255, 255); transform-origin: 388.12px 108.44px; transform: rotate(-57.89deg);" class="animable"></rect></g><path d="M382.55,98.53a4.23,4.23,0,0,1-1.58-.3c-2.3-.9-3.49-3.72-3.89-6.83a3.23,3.23,0,0,1-2.5.23c-3.8-1.5-2.26-9.79-2.19-10.14l1,.19c-.41,2.17-.94,8,1.58,9a2.52,2.52,0,0,0,2-.37,18.43,18.43,0,0,1,.92-7.6c.87-2.22,2.23-3.16,3.72-2.57,1.71.68,2.16,2.42,1.24,4.77A14.07,14.07,0,0,1,378,90.87c.34,3,1.41,5.68,3.31,6.43,1.47.58,3.41,0,5.48-1.65l.45-.36a11.09,11.09,0,0,1,.38-7.46c1.11-2.82,2.89-4.14,4.63-3.46a2,2,0,0,1,1.27,1.69c.35,2.34-2,6.62-5.11,9.51a3.66,3.66,0,0,0,1.93,1.8c2.15.85,6.18-3.67,7.55-5.48l.8.6c-.55.73-5.48,7.09-8.72,5.81a4.52,4.52,0,0,1-2.3-2.07l-.25.21A8.23,8.23,0,0,1,382.55,98.53Zm8.83-13.33c-1.18,0-2.22,1.53-2.8,3a10.91,10.91,0,0,0-.53,6.36c2.68-2.64,4.8-6.43,4.51-8.35a1,1,0,0,0-.65-.91A1.42,1.42,0,0,0,391.38,85.2ZM380.77,81c-.92,0-1.56,1.09-1.95,2.1a16.65,16.65,0,0,0-.89,6.61,12.78,12.78,0,0,0,4-5.15c.5-1.26.78-2.89-.68-3.47A1.35,1.35,0,0,0,380.77,81Z" style="fill: rgb(255, 255, 255); transform-origin: 385.356px 89.2488px;" id="els5k1vnu9z7m" class="animable"></path><g id="elj8a8jbt0z1h"><rect x="351.5" y="121.41" width="33.38" height="18.37" style="fill: rgb(199, 199, 199); transform-origin: 368.19px 130.595px; transform: rotate(21.56deg);" class="animable"></rect></g><path d="M376.82,143.88c-3.11,2.52-7.75,4-14.43,1.39s-9-6.92-9.58-10.87Z" style="fill: rgb(199, 199, 199); transform-origin: 364.815px 140.521px;" id="elbs0kt7k1y6" class="animable"></path><path d="M376.82,143.88a12.48,12.48,0,0,1-3.05,1.83L353,135.63a11,11,0,0,1-.23-1.23Z" style="fill: rgb(166, 166, 166); transform-origin: 364.795px 140.055px;" id="elhgbnrpgycd" class="animable"></path><polygon points="386.71 131.8 352.64 121.86 353.23 120.37 387.3 130.31 386.71 131.8" style="fill: rgb(166, 166, 166); transform-origin: 369.97px 126.085px;" id="elz04wy1cn6xg" class="animable"></polygon><polygon points="384.93 136.31 350.86 126.37 351.45 124.88 385.51 134.82 384.93 136.31" style="fill: rgb(166, 166, 166); transform-origin: 368.185px 130.595px;" id="eltg0dwxe6pkh" class="animable"></polygon><polygon points="383.14 140.82 349.08 130.88 349.67 129.39 383.73 139.33 383.14 140.82" style="fill: rgb(166, 166, 166); transform-origin: 366.405px 135.105px;" id="elnq7o4mftomj" class="animable"></polygon><g id="elh1zvwakvhk7"><g style="opacity: 0.5; transform-origin: 390.594px 78.1711px;" class="animable"><path d="M361.77,64.72c1.06.64,4.86-4.65,13.86-8.95,4-1.91,16.14-1.49,16.75-5.28s-10.31-4-17.27-.31C363.91,56.05,360.79,64.14,361.77,64.72Z" style="fill: rgb(255, 255, 255); transform-origin: 377.003px 56.1498px;" id="elzxx5li3d3jl" class="animable"></path><path d="M417.3,88.07a1.75,1.75,0,0,0,1.28-3.25A1.75,1.75,0,0,0,417.3,88.07Z" style="fill: rgb(255, 255, 255); transform-origin: 417.94px 86.445px;" id="el6hr6th0ydr" class="animable"></path><path d="M397.38,108.5c.8,1.32,8.38-1.61,13.31-6.74,4.08-4.25,7-10.53,5.72-11.46s-5.63,7.53-8.59,10.11C404.08,103.66,396.53,107.08,397.38,108.5Z" style="fill: rgb(255, 255, 255); transform-origin: 407.014px 99.5223px;" id="eljsup9q8bt4" class="animable"></path></g></g></g><g id="freepik--Pencil--inject-177" class="animable" style="transform-origin: 412.599px 291.744px;"><path d="M439,333.58s9.73,11.54,19.2,1.63-2.49-19.12-2.49-19.12Z" style="fill: rgb(255, 154, 187); transform-origin: 450.424px 327.659px;" id="elu4qkvtm6skh" class="animable"></path><polygon points="388.43 251.53 371.71 269.02 439.68 334.25 456.39 316.76 388.43 251.53" style="fill: rgb(0, 177, 249); transform-origin: 414.05px 292.89px;" id="el4rlwxwlbj0a" class="animable"></polygon><g id="elg298k3rwma7"><polygon points="388.43 251.53 371.71 269.02 439.68 334.25 456.39 316.76 388.43 251.53" style="opacity: 0.1; transform-origin: 414.05px 292.89px;" class="animable"></polygon></g><g id="elo31jdi8vefs"><g style="opacity: 0.1; transform-origin: 414.135px 292.815px;" class="animable"><path d="M387.61,257.38c20.38,19.15,43,40.87,63,60.47-20.38-19.15-43-40.88-63-60.47Z" id="elt5qp95x708h" class="animable" style="transform-origin: 419.11px 287.615px;"></path><path d="M384.29,260.85c20.39,19.14,43,40.87,63,60.46-20.39-19.14-43-40.87-63-60.46Z" id="elnaj5999n1r" class="animable" style="transform-origin: 415.79px 291.08px;"></path><path d="M381,264.31c20.38,19.15,43,40.88,63,60.47-20.39-19.14-43-40.88-63-60.47Z" id="elwosfg5rwsmc" class="animable" style="transform-origin: 412.5px 294.545px;"></path><path d="M377.66,267.78c20.39,19.15,43,40.88,63,60.47-20.38-19.15-43-40.88-63-60.47Z" id="eln82nw81vgnp" class="animable" style="transform-origin: 409.16px 298.015px;"></path></g></g><g id="elnd16quh9lbn"><rect x="432.1" y="320.35" width="28.25" height="6.86" style="fill: rgb(199, 199, 199); transform-origin: 446.225px 323.78px; transform: rotate(-46.3deg);" class="animable"></rect></g><g id="el5i0rvqwr1x"><rect x="426.62" y="315.11" width="28.25" height="6.86" style="fill: rgb(199, 199, 199); transform-origin: 440.745px 318.54px; transform: rotate(-46.3deg);" class="animable"></rect></g><path d="M388.44,251.52l-18.88-5.44-6.21-1.82,2.06,6.17,6.3,18.6,4.23.66s-.89-4.08-.89-4.16l4.23.66s-.88-4.09-.88-4.16l4.19.69s-.84-4.12-.84-4.19l4.19.69s-.85-4.12-.85-4.2l4.2.7S388.44,251.6,388.44,251.52Z" style="fill: rgb(0, 177, 249); transform-origin: 376.32px 256.975px;" id="elli7oicq8aeo" class="animable"></path><g id="el1razh3rnyq3"><path d="M388.44,251.52l-18.88-5.44-6.21-1.82,2.06,6.17,6.3,18.6,4.23.66s-.89-4.08-.89-4.16l4.23.66s-.88-4.09-.88-4.16l4.19.69s-.84-4.12-.84-4.19l4.19.69s-.85-4.12-.85-4.2l4.2.7S388.44,251.6,388.44,251.52Z" style="fill: rgb(255, 255, 255); opacity: 0.9; transform-origin: 376.32px 256.975px;" class="animable"></path></g><polygon points="369.56 246.08 363.35 244.26 365.41 250.43 369.56 246.08" style="fill: rgb(38, 50, 56); transform-origin: 366.455px 247.345px;" id="elou9fsp5awh" class="animable"></polygon></g><g id="freepik--chemistry-icon--inject-177" class="animable" style="transform-origin: 80.887px 344.719px;"><path d="M103.46,371.94,85.69,361.68a.79.79,0,0,1-.39-.68V340.49a.79.79,0,0,1,.39-.68l17.77-10.26a.78.78,0,0,1,.78,0L122,339.81a.79.79,0,0,1,.39.68V361a.79.79,0,0,1-.39.68l-17.77,10.26a.75.75,0,0,1-.78,0Zm17.38-31-17-9.81-17,9.81v19.61l17,9.81,17-9.81Z" style="fill: rgb(69, 90, 100); transform-origin: 103.845px 350.747px;" id="ellbui0nhjlel" class="animable"></path><path d="M103,372.66,85.28,362.4a1.62,1.62,0,0,1-.81-1.4V340.49a1.62,1.62,0,0,1,.81-1.4L103,328.83a1.62,1.62,0,0,1,1.62,0l17.77,10.26a1.63,1.63,0,0,1,.8,1.4V361a1.63,1.63,0,0,1-.8,1.4l-17.77,10.26a1.6,1.6,0,0,1-1.62,0Zm17-31.24-16.16-9.33L87.7,341.42v18.65l16.15,9.33L120,360.07Z" style="fill: rgb(69, 90, 100); transform-origin: 103.83px 350.747px;" id="elxqn1fi7j2ua" class="animable"></path><path d="M67.92,371.94,50.15,361.68a.79.79,0,0,1-.39-.68V340.49a.79.79,0,0,1,.39-.68l17.77-10.26a.8.8,0,0,1,.79,0l17.76,10.26a.78.78,0,0,1,.4.68V361a.78.78,0,0,1-.4.68L68.71,371.94a.83.83,0,0,1-.4.11A.79.79,0,0,1,67.92,371.94Zm17.38-31-17-9.81-17,9.81v19.61l17,9.81,17-9.81Z" style="fill: rgb(69, 90, 100); transform-origin: 68.315px 350.748px;" id="el5eeeflxx6om" class="animable"></path><path d="M67.51,372.66,49.74,362.4a1.62,1.62,0,0,1-.81-1.4V340.49a1.62,1.62,0,0,1,.81-1.4l17.77-10.26a1.6,1.6,0,0,1,1.61,0l17.77,10.26a1.62,1.62,0,0,1,.81,1.4V361a1.62,1.62,0,0,1-.81,1.4L69.12,372.66a1.58,1.58,0,0,1-1.61,0Zm17-31.24-16.16-9.33-16.15,9.33v18.65l16.15,9.33,16.16-9.33Z" style="fill: rgb(69, 90, 100); transform-origin: 68.315px 350.747px;" id="elseysauz1v9a" class="animable"></path><path d="M68.31,331a.78.78,0,0,0,.79-.78V318.05a.79.79,0,0,0-1.57,0v12.18A.78.78,0,0,0,68.31,331Z" style="fill: rgb(69, 90, 100); transform-origin: 68.315px 324.174px;" id="ellzrj163e5xb" class="animable"></path><path d="M68.31,331.84a1.62,1.62,0,0,0,1.62-1.61V318.05a1.62,1.62,0,0,0-3.23,0v12.18A1.61,1.61,0,0,0,68.31,331.84Z" style="fill: rgb(69, 90, 100); transform-origin: 68.315px 324.199px;" id="el7ovnebgzt2r" class="animable"></path><path d="M50.55,341.27a.78.78,0,0,0,.37-1.47l-10.33-5.66a.79.79,0,0,0-1.07.31.78.78,0,0,0,.31,1.06l10.34,5.66A.75.75,0,0,0,50.55,341.27Z" style="fill: rgb(69, 90, 100); transform-origin: 45.38px 337.657px;" id="elciqzv4bfan" class="animable"></path><path d="M50.55,342.1A1.62,1.62,0,0,0,52.1,340a1.65,1.65,0,0,0-.78-1L41,333.41a1.53,1.53,0,0,0-1.22-.13,1.59,1.59,0,0,0-1,.77,1.62,1.62,0,0,0,.64,2.19l10.34,5.66A1.65,1.65,0,0,0,50.55,342.1Z" style="fill: rgb(69, 90, 100); transform-origin: 45.3784px 337.654px;" id="elrhe95vibere" class="animable"></path><path d="M115.89,359.49a.78.78,0,0,0,.78-.78V343.05a.78.78,0,1,0-1.56,0v15.66A.78.78,0,0,0,115.89,359.49Z" style="fill: rgb(69, 90, 100); transform-origin: 115.89px 350.878px;" id="elo3idawhmuli" class="animable"></path><path d="M115.89,360.32a1.62,1.62,0,0,0,1.62-1.61V343.05a1.62,1.62,0,1,0-3.23,0v15.66A1.61,1.61,0,0,0,115.89,360.32Z" style="fill: rgb(69, 90, 100); transform-origin: 115.895px 350.811px;" id="el0sf30yes2bx9" class="animable"></path><path d="M80.05,359.49a.78.78,0,0,0,.78-.78V343.05a.78.78,0,1,0-1.56,0v15.66A.78.78,0,0,0,80.05,359.49Z" style="fill: rgb(69, 90, 100); transform-origin: 80.05px 350.88px;" id="el7lifpwv7ull" class="animable"></path><path d="M80.05,360.32a1.61,1.61,0,0,0,1.61-1.61V343.05a1.61,1.61,0,1,0-3.22,0v15.66A1.61,1.61,0,0,0,80.05,360.32Z" style="fill: rgb(69, 90, 100); transform-origin: 80.05px 350.88px;" id="el41vuoif4atf" class="animable"></path><path d="M91.08,345.21a.73.73,0,0,0,.4-.11L105,337.23a.79.79,0,0,0,.29-1.07.8.8,0,0,0-1.08-.29l-13.53,7.88a.78.78,0,0,0-.28,1.07A.76.76,0,0,0,91.08,345.21Z" style="fill: rgb(69, 90, 100); transform-origin: 97.8419px 340.489px;" id="elhcq8nbj3eer" class="animable"></path><path d="M91.08,346a1.68,1.68,0,0,0,.82-.22l13.53-7.88a1.61,1.61,0,1,0-1.62-2.78L90.27,343a1.62,1.62,0,0,0,.81,3Z" style="fill: rgb(69, 90, 100); transform-origin: 97.8908px 340.434px;" id="el8xvpkkayu3h" class="animable"></path><path d="M55.23,345.21a.68.68,0,0,0,.39-.11l13.54-7.87a.79.79,0,0,0-.79-1.36l-13.53,7.88a.78.78,0,0,0,.39,1.46Z" style="fill: rgb(69, 90, 100); transform-origin: 61.9659px 340.504px;" id="el6fv2ei5vrck" class="animable"></path><path d="M55.23,346a1.61,1.61,0,0,0,.81-.22l13.54-7.88a1.6,1.6,0,0,0,.58-2.2,1.6,1.6,0,0,0-2.2-.58L54.42,343a1.62,1.62,0,0,0,.81,3Z" style="fill: rgb(69, 90, 100); transform-origin: 62.0149px 340.449px;" id="elo48a9fchrp" class="animable"></path></g><g id="freepik--Puzzle--inject-177" class="animable" style="transform-origin: 100.875px 110.54px;"><path d="M117,137.59a6.71,6.71,0,0,0,9.49,8.35,3.26,3.26,0,0,1,2.82-.21,3.22,3.22,0,0,1,1.82,4.18l-6.2,15.64L82,148.54l6.2-15.65a3.2,3.2,0,0,1,4.17-1.8,3.24,3.24,0,0,1,1.91,2.09,6.72,6.72,0,1,0,8.89-8.29,6.68,6.68,0,0,0-5.75.38,3.35,3.35,0,0,1-2.83.22,3.22,3.22,0,0,1-1.8-4.17L99,105.65l15.65,6.2a3.19,3.19,0,0,0,4.17-1.79,3.25,3.25,0,0,0-.22-2.83,6.73,6.73,0,1,1,12.14-.78,6.65,6.65,0,0,1-4.23,3.92,3.33,3.33,0,0,0-2.09,1.91,3.2,3.2,0,0,0,1.8,4.16l15.67,6.22-6.22,15.68a3.23,3.23,0,0,1-4.19,1.79,3.35,3.35,0,0,1-1.91-2.09,6.59,6.59,0,0,0-3.89-4.22A6.72,6.72,0,0,0,117,137.59Z" style="fill: rgb(55, 71, 79); transform-origin: 111.945px 131.393px;" id="el0f4y8avk7qtu" class="animable"></path><path d="M110.93,55.53l6.16,39.09-14.26,2.24a2.74,2.74,0,0,1-3.15-2.29,2.81,2.81,0,0,1,.71-2.32,5.74,5.74,0,1,0-7.2,1.14,2.87,2.87,0,0,1,1.39,2,2.74,2.74,0,0,1-2.29,3.14L78,100.77,75.76,86.52a2.73,2.73,0,0,0-3.15-2.29,2.8,2.8,0,0,0-2,1.39,5.77,5.77,0,1,1-1.13-7.21,2.82,2.82,0,0,0,2.32.71A2.76,2.76,0,0,0,74.1,76L71.85,61.69l14.28-2.25a2.78,2.78,0,0,1,3.15,2.32,2.83,2.83,0,0,1-.71,2.32,5.69,5.69,0,0,0-1.39,4.71,5.75,5.75,0,1,0,8.6-5.85,2.77,2.77,0,0,1,.89-5.16Z" style="fill: rgb(69, 90, 100); transform-origin: 88.4746px 78.15px;" id="el0n79nfcgrfji" class="animable"></path></g><g id="freepik--brain-side-1--inject-177" class="animable animator-active" style="transform-origin: 168.869px 250px;"><path d="M100.22,328.53c.59,9.05,3.73,34.21,20.12,49.35,14.34,13.28,29.17,17,36.35,18.05,3.47,3.72,10,9.56,18.52,12.17a43.73,43.73,0,0,0,12.63,2,33.3,33.3,0,0,0,9.19-1.24,30.12,30.12,0,0,0,18.73,6.59c.49,0,1,0,1.5,0,15.63-.75,32.15-18.19,31.92-54.71.24-.79.52-1.83.81-3.07V98s0,0,0,0c-5.16-8.14-13.92-13.45-23.52-13.45a28.27,28.27,0,0,0-12.78,3.19,63.69,63.69,0,0,0-6.72-.35c-12.44,0-22.22,3.59-28.59,10.44a50,50,0,0,0-14.4,4.3,36.71,36.71,0,0,0-20.83,27.15c-8.59,4.92-19.59,16.17-16.73,36a49.12,49.12,0,0,0-10.85,8.51c-6.91,7.29-13.86,19.51-10.23,37.71-4.43,3.59-10,9.43-11.83,17.27a23.91,23.91,0,0,0,1.68,15.74c-2.33,6.85-3.61,16.62.26,25.66C87.31,282.42,81.47,304.65,100.22,328.53Z" style="fill: rgb(69, 90, 100); transform-origin: 168.869px 250px;" id="el1sfzlwcbl9d" class="animable"></path><path d="M239.06,135.39s8.59-10.84,6.53-24.1S229.34,87.94,215.52,97.1c0,0-23.35-4.49-32.5,9.34,0,0-29.88.56-31.56,28.95,0,0-23,6.91-14.76,34.92,0,0-31.94,10.84-21.1,45,0,0-21.86,11.95-10.46,28.57,0,0-7.85,15.51,1.12,27.09,0,0-23.16,23.72,2.8,54.16,0,0,.18,30.26,17.37,46.14s34.74,16.06,34.74,16.06,6.84,9.16,16.65,12.14c13.92,4.23,21.27-1.31,21.27-1.31a21,21,0,0,0,17.74,8.22c11.77-.56,23.91-16.81,23.35-47.07,0,0,10.64-29.69-8.78-56.78,0,0,20.54-26,3.36-55.1,0,0,7.47-4.85,8.59-17.74s-11.21-26.15-11.21-26.15,6.36-18.3,0-29.32C232.14,174.24,247.46,161,239.06,135.39Z" style="fill: rgb(69, 90, 100); transform-origin: 171.329px 249.99px;" id="eldo9pg2s55qj" class="animable"></path><g id="el7gyaszig9uw"><path d="M239.06,135.39s8.59-10.84,6.53-24.1S229.34,87.94,215.52,97.1c0,0-23.35-4.49-32.5,9.34,0,0-29.88.56-31.56,28.95,0,0-23,6.91-14.76,34.92,0,0-31.94,10.84-21.1,45,0,0-21.86,11.95-10.46,28.57,0,0-7.85,15.51,1.12,27.09,0,0-23.16,23.72,2.8,54.16,0,0,.18,30.26,17.37,46.14s34.74,16.06,34.74,16.06,6.84,9.16,16.65,12.14c13.92,4.23,21.27-1.31,21.27-1.31a21,21,0,0,0,17.74,8.22c11.77-.56,23.91-16.81,23.35-47.07,0,0,10.64-29.69-8.78-56.78,0,0,20.54-26,3.36-55.1,0,0,7.47-4.85,8.59-17.74s-11.21-26.15-11.21-26.15,6.36-18.3,0-29.32C232.14,174.24,247.46,161,239.06,135.39Z" style="fill: rgb(255, 255, 255); opacity: 0.4; transform-origin: 171.329px 249.99px;" class="animable"></path></g><g id="elxges2e0r9eo"><g style="opacity: 0.3; transform-origin: 166.931px 250.369px;" class="animable"><path d="M217.36,96.54a22.24,22.24,0,0,1,4.08-2.23,20.8,20.8,0,0,0-4.84,2.13Z" style="fill: rgb(255, 255, 255); transform-origin: 219.02px 95.425px;" id="elaucl3oettsk" class="animable"></path><path d="M109.06,325.16s.18,30.25,17.36,46.13,34.74,16.06,34.74,16.06,6.84,9.16,16.66,12.15c13.92,4.22,21.26-1.32,21.26-1.32a21,21,0,0,0,17.75,8.22c7.92-.38,16-7.86,20.28-22-3.68,4.86-8.12,7.49-12.55,7.8a20.1,20.1,0,0,1-17.13-7.52s-6.91,5.44-20.3,1.67C177.69,383.71,171,375.1,171,375.1s-16.79.16-33.53-14.7S120,316.63,120,316.63c-25.4-28.61-3.71-51.74-3.71-51.74-8.79-10.89-1.6-25.87-1.6-25.87-11.2-15.67,9.46-27.52,9.46-27.52-11-32.46,19.31-43.44,19.31-43.44-8.4-26.63,13.44-33.67,13.44-33.67,1.05-27.19,29.62-28.29,29.62-28.29,3.86-6.1,10.59-8.62,16.79-9.56-7.1.53-15.54,2.8-20.23,9.89,0,0-29.89.56-31.58,29,0,0-23,6.91-14.75,34.92,0,0-31.94,10.84-21.1,45,0,0-21.86,11.95-10.47,28.58,0,0-7.84,15.49,1.13,27.08C106.26,271,83.1,294.71,109.06,325.16Z" style="fill: rgb(255, 255, 255); transform-origin: 166.931px 251.484px;" id="elnjvacyv1i3d" class="animable"></path><g id="eleeu6id8xzwa"><path d="M217.36,96.54a22.24,22.24,0,0,1,4.08-2.23,20.8,20.8,0,0,0-4.84,2.13Z" style="fill: rgb(255, 255, 255); opacity: 0.4; transform-origin: 219.02px 95.425px;" class="animable"></path></g><g id="el6bs6qqmgdl9"><path d="M109.06,325.16s.18,30.25,17.36,46.13,34.74,16.06,34.74,16.06,6.84,9.16,16.66,12.15c13.92,4.22,21.26-1.32,21.26-1.32a21,21,0,0,0,17.75,8.22c7.92-.38,16-7.86,20.28-22-3.68,4.86-8.12,7.49-12.55,7.8a20.1,20.1,0,0,1-17.13-7.52s-6.91,5.44-20.3,1.67C177.69,383.71,171,375.1,171,375.1s-16.79.16-33.53-14.7S120,316.63,120,316.63c-25.4-28.61-3.71-51.74-3.71-51.74-8.79-10.89-1.6-25.87-1.6-25.87-11.2-15.67,9.46-27.52,9.46-27.52-11-32.46,19.31-43.44,19.31-43.44-8.4-26.63,13.44-33.67,13.44-33.67,1.05-27.19,29.62-28.29,29.62-28.29,3.86-6.1,10.59-8.62,16.79-9.56-7.1.53-15.54,2.8-20.23,9.89,0,0-29.89.56-31.58,29,0,0-23,6.91-14.75,34.92,0,0-31.94,10.84-21.1,45,0,0-21.86,11.95-10.47,28.58,0,0-7.84,15.49,1.13,27.08C106.26,271,83.1,294.71,109.06,325.16Z" style="fill: rgb(255, 255, 255); opacity: 0.3; transform-origin: 166.931px 251.484px;" class="animable"></path></g></g></g><path d="M203.26,96.54a52,52,0,0,1,12.26.56q.54-.36,1.08-.66A49.64,49.64,0,0,0,203.26,96.54Z" style="fill: rgb(69, 90, 100); transform-origin: 209.93px 96.5692px;" id="el3d1ytlb51c7" class="animable"></path><g id="elaswv1cq7z2"><path d="M203.26,96.54a52,52,0,0,1,12.26.56q.54-.36,1.08-.66A49.64,49.64,0,0,0,203.26,96.54Z" style="fill: rgb(255, 255, 255); opacity: 0.4; transform-origin: 209.93px 96.5692px;" class="animable"></path></g><path d="M105.14,243.9c3.2,5,10.46,5.89,15.79,4.12a18,18,0,0,0,11.79-11.65,43.11,43.11,0,0,1-6.08,5.13c-6.28,4.21-14.49,6.18-21.5,2.4Z" style="fill: rgb(69, 90, 100); transform-origin: 118.93px 242.613px;" id="el5es17c7bnr5" class="animable"></path><path d="M240.18,359.33c-17.28,6.95-23.87,6.24-39.73-3.42,11,13.76,26.53,15.17,39.73,3.42Z" style="fill: rgb(69, 90, 100); transform-origin: 220.315px 361.591px;" id="elyrvltu9e0k" class="animable"></path><path d="M161.17,387.35c-5.32-8.37-6.93-18.35-8.53-28-3.27,9.61-.64,22.52,8.53,28Z" style="fill: rgb(69, 90, 100); transform-origin: 156.232px 373.35px;" id="elz40shl6a1am" class="animable"></path><path d="M106.26,271a28.32,28.32,0,0,0,15,13.08c6.26,2.41,15.16,1.42,18.68-4.87-.4.24-1.17.79-1.54,1a16.64,16.64,0,0,1-2.69,1.21c-10.94,3.5-21.16-4-29.45-10.44Z" style="fill: rgb(69, 90, 100); transform-origin: 123.1px 278.134px;" id="elzvdhmm0onpi" class="animable"></path><path d="M151.46,135.39a15.61,15.61,0,0,0,1.25,10.15l0-1.59a20.93,20.93,0,0,0-2.76,5.74c-2,5.95-.9,13.3,4,17.54-2.94-7.09-2.13-15,1.21-21.73l.48-1c-2.17-2.54-3.08-5.93-4.11-9.13Z" style="fill: rgb(69, 90, 100); transform-origin: 152.322px 151.3px;" id="eljmeqw0knb6" class="animable"></path><path d="M136.7,170.31a13,13,0,0,0,9.71,12.52,82,82,0,0,1-9.71-12.52Z" style="fill: rgb(69, 90, 100); transform-origin: 141.555px 176.57px;" id="elv11mqxsswr" class="animable"></path><path d="M183,106.44c-4.79,5-8,12.39-6.91,19.42,2-6.64,4.84-12.86,6.91-19.42Z" style="fill: rgb(69, 90, 100); transform-origin: 179.438px 116.15px;" id="elrqlgsh2shiq" class="animable"></path><path d="M208.33,124c0-9.67,1.5-18.86,7.19-26.89-9.49,4.65-12.13,18-7.19,26.89Z" style="fill: rgb(69, 90, 100); transform-origin: 210.705px 110.555px;" id="elois2xepx28a" class="animable"></path><path d="M225.14,145.63c6.06.05,12.5-4.19,13.92-10.24-4,4.17-8.95,7.31-13.92,10.24Z" style="fill: rgb(69, 90, 100); transform-origin: 232.1px 140.51px;" id="elb811t5gkrbe" class="animable"></path><path d="M232.14,174.24a19.61,19.61,0,0,0-10.27,6.25,13.93,13.93,0,0,0,10.27-6.25Z" style="fill: rgb(69, 90, 100); transform-origin: 227.005px 177.365px;" id="elxa06kgek1j" class="animable"></path><path d="M232.14,203.56c-2.18,1.72-5.22,3.91-7.48,5.54s-5.33,3.83-7.46,5.67c6.13-1.13,12.48-5.36,14.94-11.21Z" style="fill: rgb(69, 90, 100); transform-origin: 224.67px 209.165px;" id="elg5ox1febih" class="animable"></path><path d="M234.76,247.45c-6.62,2.52-13.19,4.85-19.24,8.59,7-.77,14.26-3.44,19.24-8.59Z" style="fill: rgb(69, 90, 100); transform-origin: 225.14px 251.745px;" id="eloyn27eoml8" class="animable"></path><path d="M125.55,243.39c3.15,12,12.65,22.42,24.74,25.83s26.43.58,35.16-8.93a44.68,44.68,0,0,0,11.34-21.45,58.16,58.16,0,0,1-13.73,18.94c-11.38,10.41-29.27,11-42,2.87a46.85,46.85,0,0,1-15.5-17.26Z" style="fill: rgb(69, 90, 100); transform-origin: 161.17px 254.724px;" id="el37dzu0tiqxp" class="animable"></path><path d="M162.6,238.61c-6.09-14.34-6.36-31.21,3.05-44.08a74.24,74.24,0,0,1,10.46-11.7,42.48,42.48,0,0,0-12.55,10.1c-11.12,12.52-11,32.57-1,45.68Z" style="fill: rgb(69, 90, 100); transform-origin: 165.623px 210.72px;" id="eluzqv7pps93m" class="animable"></path><path d="M130,195.53c8.54-1.25,17.46,0,23.84,6.12,1.56,1.32,2.89,2.92,4.39,4.37A18.52,18.52,0,0,0,130,195.53Z" style="fill: rgb(69, 90, 100); transform-origin: 144.115px 199.191px;" id="elx574cunv4d" class="animable"></path><path d="M184.7,139.12c11,10.66,19.17,25.67,15.61,41.25A63.44,63.44,0,0,1,194.92,195a38.89,38.89,0,0,0,7.94-14c5.25-16.18-3.94-33.75-18.16-41.9Z" style="fill: rgb(69, 90, 100); transform-origin: 194.527px 167.05px;" id="ela4m12a98ik9" class="animable"></path><path d="M200.81,160.6a49.7,49.7,0,0,1,6.43-8.39,60.27,60.27,0,0,1,8.28-6.58c-7.94-.69-15.67,7-14.71,15Z" style="fill: rgb(69, 90, 100); transform-origin: 208.124px 153.108px;" id="eltbrmqh4dvt9" class="animable"></path><path d="M205.44,332.44c24.77-4.68,34-29.48,19.55-49.75a38,38,0,0,0-10.4-10,61.3,61.3,0,0,1,9.77,15.73c8,19.75-.47,35.15-18.92,44Z" style="fill: rgb(69, 90, 100); transform-origin: 218.647px 302.565px;" id="elukbl81bv7zq" class="animable"></path><path d="M114.07,303.43c-5,5.77-7.91,14.21-6,21.87,2.22,10.26,12.23,16.73,21.92,18.47a67.42,67.42,0,0,1-10.58-7c-10.79-8.9-10.6-21.32-5.33-33.38Z" style="fill: rgb(69, 90, 100); transform-origin: 118.735px 323.58px;" id="el4rgd1uduj33" class="animable"></path><path d="M133.71,310c15.25-3.45,32.35-1.67,43,10.71a62.33,62.33,0,0,1,8.69,13.2,38.78,38.78,0,0,0-6.65-14.87c-10.16-14.16-30.14-16.59-45.09-9Z" style="fill: rgb(69, 90, 100); transform-origin: 159.53px 319.863px;" id="el4qcysfrdr08" class="animable"></path><path d="M170.49,313.13c.94-12.86,4.36-25,15-33.18-13.52,3.78-19.22,20.69-15,33.18Z" style="fill: rgb(69, 90, 100); transform-origin: 177.306px 296.54px;" id="elux53vrxkry" class="animable"></path><path d="M192.44,212.11c11.29-1.49,22.83,1,29.26,11a60,60,0,0,1,5.31,10.1c-.91-18.44-17.77-29.12-34.57-21.13Z" style="fill: rgb(69, 90, 100); transform-origin: 209.725px 221.304px;" id="el5aagxf6j3tw" class="animable"></path><path d="M202.54,342.24c-.86,10.93-4.21,22.64-16.61,24.32a53.4,53.4,0,0,1-11.22.33c18.8,8,32.59-5.46,27.83-24.65Z" style="fill: rgb(69, 90, 100); transform-origin: 189.098px 355.74px;" id="elzkq7a0lhho" class="animable"></path><path d="M199.09,398.18a18.16,18.16,0,0,0,9.31-10.42l1.32-3.71-3.65,2c-7.17,3.82-14.14,1.4-19.82-3.85-.79-.79-1.6-1.58-2.48-2.36a22.47,22.47,0,0,0,3.68,5.95,15.37,15.37,0,0,0,13.28,5.38,15.7,15.7,0,0,0,7.06-2.6l-2.33-1.67a26.31,26.31,0,0,1-6.37,11.24Z" style="fill: rgb(69, 90, 100); transform-origin: 196.745px 389.01px;" id="elfa3w1tk01ph" class="animable"></path></g><g id="freepik--chess-piece--inject-177" class="animable" style="transform-origin: 132.761px 405.896px;"><path d="M164.44,375.34a12.47,12.47,0,0,1-9.21,7.88l-12.47-4.65a12.52,12.52,0,1,1,21.68-3.23Z" style="fill: rgb(55, 71, 79); transform-origin: 152.708px 370.834px;" id="elxqnbs9o39x" class="animable"></path><g id="elsyme3arxsk"><path d="M154,368.84a5,5,0,1,1-.13-7.11A5,5,0,0,1,154,368.84Z" style="fill: rgb(255, 255, 255); opacity: 0.3; transform-origin: 150.42px 365.349px;" class="animable"></path></g><g id="elmqyrt43ixl"><rect x="146.42" y="369.42" width="3.83" height="26.56" style="fill: rgb(55, 71, 79); transform-origin: 148.335px 382.7px; transform: rotate(-69.56deg);" class="animable"></rect></g><g id="elvfcuvkjf1qf"><rect x="103.02" y="430.18" width="53.8" height="3.83" style="fill: rgb(38, 50, 56); transform-origin: 129.92px 432.095px; transform: rotate(20.44deg);" class="animable"></rect></g><g id="el5twsi1noi3"><rect x="99.27" y="440.24" width="53.8" height="3.83" style="fill: rgb(38, 50, 56); transform-origin: 126.17px 442.155px; transform: rotate(20.44deg);" class="animable"></rect></g><g id="elk0h4u13w9gm"><rect x="103.15" y="433.67" width="49.79" height="6.91" style="fill: rgb(55, 71, 79); transform-origin: 128.045px 437.125px; transform: rotate(20.44deg);" class="animable"></rect></g><g id="el5lr67m2rtlu"><rect x="124.15" y="437.46" width="28.11" height="6.91" style="opacity: 0.1; transform-origin: 138.205px 440.915px; transform: rotate(20.44deg);" class="animable"></rect></g><g id="ely7qp54txarn"><rect x="145.08" y="375.45" width="3.83" height="21.67" style="fill: rgb(38, 50, 56); transform-origin: 146.995px 386.285px; transform: rotate(-69.55deg);" class="animable"></rect></g><path d="M151.2,438,110,422.61s12.91-5.9,19.08-16.43c5.18-8.88,10.47-20.64,10.47-20.64l13.61,5.08s-3.69,12.35-5.57,22.46C145.3,425.08,151.2,438,151.2,438Z" style="fill: rgb(55, 71, 79); transform-origin: 131.58px 411.77px;" id="elp6kjfvabpnm" class="animable"></path><g id="elrodmxsmkzel"><path d="M151.2,438l-19.83-7.39a52.63,52.63,0,0,0,9-13.34c3.11-7.17,8.41-24.18,8.41-24.18l-9.29-7.52,13.61,5.07v0c-.22.74-3.74,12.63-5.58,22.44C145.3,425.08,151.2,438,151.2,438Z" style="opacity: 0.1; transform-origin: 142.235px 411.785px;" class="animable"></path></g></g><g id="freepik--Calculator--inject-177" class="animable" style="transform-origin: 81.51px 236.265px;"><g id="el1tj0vpufus2"><rect x="50.13" y="191.4" width="58.43" height="90.84" style="fill: rgb(55, 71, 79); transform-origin: 79.345px 236.82px; transform: rotate(-14.32deg);" class="animable"></rect></g><g id="el9545s8zxeer"><rect x="54.46" y="190.29" width="58.43" height="90.84" style="fill: rgb(38, 50, 56); transform-origin: 83.675px 235.71px; transform: rotate(-14.32deg);" class="animable"></rect></g><g id="eljobxcc5rk8"><rect x="55.44" y="218.71" width="11.23" height="11.23" style="fill: rgb(219, 219, 219); transform-origin: 61.055px 224.325px; transform: rotate(-14.32deg);" class="animable"></rect></g><g id="el83iz4g9yt8u"><rect x="67.77" y="215.56" width="11.23" height="11.23" style="fill: rgb(219, 219, 219); transform-origin: 73.385px 221.175px; transform: rotate(-14.32deg);" class="animable"></rect></g><g id="elpkl0ul9aqfp"><rect x="80.11" y="212.41" width="11.23" height="11.23" style="fill: rgb(166, 166, 166); transform-origin: 85.725px 218.025px; transform: rotate(-14.32deg);" class="animable"></rect></g><g id="elibbejx55emq"><rect x="92.44" y="209.26" width="11.23" height="11.23" style="fill: rgb(166, 166, 166); transform-origin: 98.055px 214.875px; transform: rotate(-14.32deg);" class="animable"></rect></g><g id="elvtfma30ryw"><rect x="58.63" y="231.19" width="11.23" height="11.23" style="fill: rgb(69, 90, 100); transform-origin: 64.245px 236.805px; transform: rotate(-14.32deg);" class="animable"></rect></g><g id="eljitjikyybrf"><rect x="70.96" y="228.05" width="11.23" height="11.23" style="fill: rgb(69, 90, 100); transform-origin: 76.575px 233.665px; transform: rotate(-14.32deg);" class="animable"></rect></g><g id="el24ge8kepvjo"><rect x="83.3" y="224.9" width="11.23" height="11.23" style="fill: rgb(69, 90, 100); transform-origin: 88.915px 230.515px; transform: rotate(-14.32deg);" class="animable"></rect></g><g id="elzhv86ufd84"><rect x="95.65" y="221.82" width="11.23" height="11.23" style="fill: rgb(219, 219, 219); transform-origin: 101.265px 227.435px; transform: rotate(-14.32deg);" class="animable"></rect></g><g id="ellbq6or94yo"><rect x="61.81" y="243.68" width="11.23" height="11.23" style="fill: rgb(69, 90, 100); transform-origin: 67.425px 249.295px; transform: rotate(-14.32deg);" class="animable"></rect></g><g id="elbkfnyk8h42a"><rect x="74.15" y="240.53" width="11.23" height="11.23" style="fill: rgb(69, 90, 100); transform-origin: 79.765px 246.145px; transform: rotate(-14.32deg);" class="animable"></rect></g><g id="el2prsa7j4o7t"><rect x="86.48" y="237.38" width="11.23" height="11.23" style="fill: rgb(69, 90, 100); transform-origin: 92.095px 242.995px; transform: rotate(-14.32deg);" class="animable"></rect></g><g id="elhhrksm8cjxc"><rect x="98.82" y="234.23" width="11.23" height="11.23" style="fill: rgb(219, 219, 219); transform-origin: 104.435px 239.845px; transform: rotate(-14.32deg);" class="animable"></rect></g><g id="el9jyxtr4j9oq"><rect x="65" y="256.17" width="11.23" height="11.23" style="fill: rgb(69, 90, 100); transform-origin: 70.615px 261.785px; transform: rotate(-14.32deg);" class="animable"></rect></g><g id="elj3r4gaptolf"><rect x="77.34" y="253.02" width="11.23" height="11.23" style="fill: rgb(69, 90, 100); transform-origin: 82.955px 258.635px; transform: rotate(-14.32deg);" class="animable"></rect></g><g id="elcgq8ubldket"><rect x="89.67" y="249.87" width="11.23" height="11.23" style="fill: rgb(69, 90, 100); transform-origin: 95.285px 255.485px; transform: rotate(-14.32deg);" class="animable"></rect></g><g id="elk3aapm5d2r8"><rect x="102.01" y="246.72" width="11.23" height="11.23" style="fill: rgb(219, 219, 219); transform-origin: 107.625px 252.335px; transform: rotate(-14.32deg);" class="animable"></rect></g><g id="el71n5c2ypm5p"><rect x="68.19" y="268.65" width="11.23" height="11.23" style="fill: rgb(69, 90, 100); transform-origin: 73.805px 274.265px; transform: rotate(-14.32deg);" class="animable"></rect></g><g id="elkt5kapewx2"><rect x="80.52" y="265.5" width="11.23" height="11.23" style="fill: rgb(69, 90, 100); transform-origin: 86.135px 271.115px; transform: rotate(-14.32deg);" class="animable"></rect></g><g id="elkjkt3p79h8s"><rect x="92.86" y="262.35" width="11.23" height="11.23" style="fill: rgb(219, 219, 219); transform-origin: 98.475px 267.965px; transform: rotate(-14.32deg);" class="animable"></rect></g><g id="elp8ymleskrkf"><rect x="105.2" y="259.2" width="11.23" height="11.23" style="fill: rgb(219, 219, 219); transform-origin: 110.815px 264.815px; transform: rotate(-14.32deg);" class="animable"></rect></g><path d="M59.17,223.68h0a.77.77,0,1,1,1.49-.39h0a.78.78,0,0,1-.54,1A.77.77,0,0,1,59.17,223.68Zm1.09-.28h0c-.07-.25-.27-.42-.47-.37a.4.4,0,0,0-.22.54h0a.42.42,0,0,0,.47.37C60.25,223.89,60.32,223.65,60.26,223.4Zm0,2.26,1.35-3.37a.19.19,0,0,1,.14-.12.18.18,0,0,1,.22.13.19.19,0,0,1,0,.13l-1.35,3.37a.19.19,0,0,1-.36,0A.2.2,0,0,1,60.23,225.66Zm1.27-.85h0a.77.77,0,1,1,1.49-.4h0a.8.8,0,0,1-.54,1A.78.78,0,0,1,61.5,224.81Zm1.09-.27h0c-.07-.26-.26-.43-.47-.38s-.28.3-.22.54h0c.07.26.26.43.47.38S62.65,224.78,62.59,224.54Z" style="fill: rgb(55, 71, 79); transform-origin: 61.0995px 224.047px;" id="eldopmnth8vja" class="animable"></path><path d="M82.89,218.43a1.73,1.73,0,0,1,2.38-2,.27.27,0,0,1,.14.35.26.26,0,0,1-.35.14,1.18,1.18,0,0,0-.79-.06,1.22,1.22,0,0,0-.73.54,1.1,1.1,0,0,0-.13.87,1.06,1.06,0,0,0,.53.7,1.21,1.21,0,0,0,.9.12,1.17,1.17,0,0,0,.66-.43.27.27,0,0,1,.43.33,1.77,1.77,0,0,1-1,.62A1.71,1.71,0,0,1,82.89,218.43Z" style="fill: rgb(55, 71, 79); transform-origin: 84.4123px 217.969px;" id="el6ze9un0sx22" class="animable"></path><path d="M86.88,218.88l-.69-2.67a.26.26,0,0,1,.19-.31h0l1.47-.37a.25.25,0,0,1,.31.19A.25.25,0,0,1,88,216l-1.23.32.21.83L88,216.9a.25.25,0,0,1,.31.18.26.26,0,0,1-.18.32l-1.06.27.21.83,1.23-.31a.28.28,0,0,1,.32.19.26.26,0,0,1-.19.31l-1.47.38h0A.25.25,0,0,1,86.88,218.88Z" style="fill: rgb(55, 71, 79); transform-origin: 87.51px 217.298px;" id="elgb3isz7f4ta" class="animable"></path><path d="M96.57,214.94a1.72,1.72,0,0,1,1.24-2.06A1.76,1.76,0,0,1,99,213a.28.28,0,0,1,.14.35.27.27,0,0,1-.35.14,1.18,1.18,0,0,0-.79-.06,1.27,1.27,0,0,0-.74.53,1.21,1.21,0,0,0-.13.88,1.16,1.16,0,0,0,.54.7,1.26,1.26,0,0,0,.9.12,1.13,1.13,0,0,0,.66-.44.29.29,0,0,1,.38,0,.27.27,0,0,1,0,.37,1.66,1.66,0,0,1-.95.62A1.7,1.7,0,0,1,96.57,214.94Z" style="fill: rgb(55, 71, 79); transform-origin: 98.1036px 214.546px;" id="eldxcc1wfwg1k" class="animable"></path><path d="M64.92,235.31l-.45,3a.23.23,0,0,1-.19.2.17.17,0,0,1-.1,0,.27.27,0,0,1-.22-.29l.38-2.58-1.17.3a.25.25,0,0,1-.31-.19.25.25,0,0,1,.19-.31l1.55-.4h.05a.17.17,0,0,1,.1,0h0l0,0h0l0,0s0,0,0,0v0l0,0a.36.36,0,0,1,0,.1Z" style="fill: rgb(255, 255, 255); transform-origin: 63.8857px 236.775px;" id="el2nunpl0kktt" class="animable"></path><path d="M77.69,233.91a1.11,1.11,0,1,1-1.91-.47.81.81,0,0,1-.26-.41.77.77,0,1,1,1.49-.38.71.71,0,0,1,0,.48A1.1,1.1,0,0,1,77.69,233.91Zm-.49.13a.59.59,0,0,0-.73-.44.61.61,0,0,0-.45.74.62.62,0,0,0,.75.43A.6.6,0,0,0,77.2,234ZM76,232.9a.27.27,0,0,0,.33.19.26.26,0,0,0,.18-.32.26.26,0,0,0-.51.13Z" style="fill: rgb(255, 255, 255); transform-origin: 76.6033px 233.657px;" id="elx1h5euqsz1" class="animable"></path><path d="M87.63,230.31a1.14,1.14,0,0,1,2.17-.67h0a2.41,2.41,0,0,1,.08.25,2.84,2.84,0,0,1,.08,1,1.61,1.61,0,0,1-.39.92,1.28,1.28,0,0,1-.63.39.26.26,0,0,1-.32-.17.27.27,0,0,1,.18-.33.88.88,0,0,0,.39-.23,1.22,1.22,0,0,0,.21-.39.59.59,0,0,0,0-.14.94.94,0,0,1-.41.21A1.14,1.14,0,0,1,87.63,230.31Zm.5-.13a.63.63,0,0,0,.76.45.62.62,0,0,0,.44-.75.62.62,0,0,0-1.2.3Z" style="fill: rgb(255, 255, 255); transform-origin: 88.7891px 230.571px;" id="el1p07d4az4q4" class="animable"></path><path d="M100.3,227.69a.28.28,0,0,1,.19-.34l1.42-.36a.28.28,0,0,1,.13.54l-1.41.36A.27.27,0,0,1,100.3,227.69Z" style="fill: rgb(55, 71, 79); transform-origin: 101.255px 227.443px;" id="elp2l3dntdch" class="animable"></path><path d="M68.81,249.64a.26.26,0,0,1-.19.32h0l.09.34a.27.27,0,0,1-.19.32.26.26,0,0,1-.31-.19l-.09-.34-1.42.36h0a.2.2,0,0,1-.17,0,.26.26,0,0,1-.13-.34l1.15-2.51v0s0,0,0,0l0,0h0l0,0s0,0,0,0h.29l0,0v0l0,0s0,0,0,0,0,0,0,0v0h0l.47,1.83h0A.25.25,0,0,1,68.81,249.64Zm-1.14-1.16-.62,1.35.9-.23Z" style="fill: rgb(255, 255, 255); transform-origin: 67.6048px 249.113px;" id="elumts2spdzu" class="animable"></path><path d="M80.25,245.57a1.14,1.14,0,0,1,.54.72A1.18,1.18,0,0,1,80,247.7h0a1.12,1.12,0,0,1-.87-.13.26.26,0,1,1,.27-.45.63.63,0,0,0,.48.07.61.61,0,0,0,.39-.3.65.65,0,0,0,.07-.47A.59.59,0,0,0,80,246a.6.6,0,0,0-.47-.07.66.66,0,0,0-.39.29.25.25,0,0,1-.36.09l-.07,0s0,0,0,0,0,0,0,0,0,0,0,0h0a.31.31,0,0,1,0-.08l-.16-1.21a.26.26,0,0,1,.06-.21h0s0,0,0,0l.11,0L80,244.3a.26.26,0,0,1,.32.2.27.27,0,0,1-.19.32L79,245.1l.06.46a1.21,1.21,0,0,1,.3-.11A1.12,1.12,0,0,1,80.25,245.57Z" style="fill: rgb(255, 255, 255); transform-origin: 79.6859px 246.014px;" id="eljpu0rjxug2d" class="animable"></path><path d="M93.25,243.13a1.14,1.14,0,0,1-.82,1.38,1.13,1.13,0,0,1-1.35-.7h0a2,2,0,0,1-.08-.26,2.84,2.84,0,0,1-.08-1,1.64,1.64,0,0,1,.39-.92,1.46,1.46,0,0,1,.62-.39.27.27,0,0,1,.33.18.27.27,0,0,1-.18.32.89.89,0,0,0-.39.24.91.91,0,0,0-.21.39l0,.13a1.17,1.17,0,0,1,.42-.2A1.14,1.14,0,0,1,93.25,243.13Zm-.51.13a.61.61,0,1,0-.44.75A.61.61,0,0,0,92.74,243.26Z" style="fill: rgb(255, 255, 255); transform-origin: 92.0952px 242.889px;" id="elx3uoih1028" class="animable"></path><path d="M103.59,240.21a.24.24,0,0,1-.29-.17.25.25,0,0,1,.17-.3l1.83-.47a.25.25,0,0,1,.12.48Zm.93-1.5v0a.31.31,0,0,1-.23.38.31.31,0,0,1-.39-.22v0a.32.32,0,0,1,.24-.38A.31.31,0,0,1,104.52,238.71Zm.48,1.89v0a.32.32,0,0,1-.24.38.32.32,0,0,1-.39-.22v0a.32.32,0,0,1,.23-.39A.32.32,0,0,1,105,240.6Z" style="fill: rgb(55, 71, 79); transform-origin: 104.434px 239.735px;" id="el8cqw2ytt318" class="animable"></path><path d="M70.73,260.24l.69,2.67a.28.28,0,0,1-.19.32.27.27,0,0,1-.32-.19l-.57-2.23-.15.15a.21.21,0,0,1-.12.07.26.26,0,0,1-.25-.43l.47-.48h0l0,0h.29l0,0h0l0,0a0,0,0,0,0,0,0v0s0,0,0,0Z" style="fill: rgb(255, 255, 255); transform-origin: 70.5878px 261.678px;" id="elma3nprz1fit" class="animable"></path><path d="M84.28,259.63a.25.25,0,0,1-.19.31l-1.6.41h0a.25.25,0,0,1-.28-.39l1-1.56a.59.59,0,0,0,.08-.48.6.6,0,0,0-.74-.44.67.67,0,0,0-.35.25l-.11.17a.26.26,0,1,1-.43-.29l.11-.16a1.12,1.12,0,0,1,.66-.47,1.13,1.13,0,0,1,.89.15,1.07,1.07,0,0,1,.47.66,1.11,1.11,0,0,1-.15.9l-.66,1,1-.24A.25.25,0,0,1,84.28,259.63Z" style="fill: rgb(255, 255, 255); transform-origin: 82.9466px 258.655px;" id="elw25o4bqs67" class="animable"></path><path d="M95.81,254.9a1.12,1.12,0,0,1,.53.7A1.15,1.15,0,0,1,95.5,257a1.12,1.12,0,0,1-.87-.13.26.26,0,0,1-.1-.36.27.27,0,0,1,.37-.09.56.56,0,0,0,.47.06.61.61,0,0,0,.39-.28.64.64,0,0,0,.07-.48.63.63,0,0,0-.77-.46.24.24,0,0,1-.2,0h0a.26.26,0,0,1-.1-.36l.34-.59-.73.19a.26.26,0,0,1-.32-.19.26.26,0,0,1,.19-.32l1.33-.34a.26.26,0,0,1,.33.18.33.33,0,0,1,0,.14l0,.07-.42.74A.84.84,0,0,1,95.81,254.9Z" style="fill: rgb(255, 255, 255); transform-origin: 95.2083px 255.337px;" id="el1yfn8sar15" class="animable"></path><path d="M108.3,251.77l-.35.88.73.61a.26.26,0,0,1,0,.34.42.42,0,0,1-.14.09.36.36,0,0,1-.22-.05l-.61-.51-.3.74a.26.26,0,0,1-.16.15.3.3,0,0,1-.16,0,.24.24,0,0,1-.13-.31l.35-.89-.73-.6a.24.24,0,0,1,0-.34.25.25,0,0,1,.34,0l.61.49.3-.72a.26.26,0,0,1,.33-.14A.25.25,0,0,1,108.3,251.77Z" style="fill: rgb(55, 71, 79); transform-origin: 107.626px 252.762px;" id="el2l48icy2f4i" class="animable"></path><path d="M74.21,275.08a.35.35,0,0,1,.43.25.35.35,0,0,1-.68.17A.35.35,0,0,1,74.21,275.08Z" style="fill: rgb(255, 255, 255); transform-origin: 74.3004px 275.417px;" id="el9thbd3hpwy" class="animable"></path><path d="M84.81,271.37a1.9,1.9,0,0,1,0-1.16,1,1,0,0,1,.71-.72,1,1,0,0,1,1,.29,2,2,0,0,1,.58,1,2.06,2.06,0,0,1,0,1.16,1.07,1.07,0,0,1-.71.72,1.06,1.06,0,0,1-1-.29A2,2,0,0,1,84.81,271.37Zm1.79-.46a1.55,1.55,0,0,0-.43-.75.53.53,0,0,0-.49-.17.56.56,0,0,0-.36.39,1.55,1.55,0,0,0,0,.86,1.59,1.59,0,0,0,.42.75.59.59,0,0,0,.5.17.56.56,0,0,0,.35-.39A1.54,1.54,0,0,0,86.6,270.91Z" style="fill: rgb(255, 255, 255); transform-origin: 85.9513px 271.072px;" id="el081wu7126cgb" class="animable"></path><path d="M97.41,267.79a.27.27,0,0,1,.2-.33l1.39-.35a.27.27,0,0,1,.33.19.26.26,0,0,1-.19.33l-1.4.35A.27.27,0,0,1,97.41,267.79Zm.21.84a.28.28,0,0,1,.2-.34l1.39-.35a.26.26,0,0,1,.33.2.26.26,0,0,1-.19.33l-1.39.36A.28.28,0,0,1,97.62,268.63Z" style="fill: rgb(55, 71, 79); transform-origin: 98.4765px 267.97px;" id="elmhkyk6zqy5t" class="animable"></path><path d="M110.63,265l-.64.16a.25.25,0,1,1-.13-.49l.64-.17-.16-.63a.27.27,0,0,1,.19-.32.26.26,0,0,1,.33.19l.16.63.64-.17a.27.27,0,0,1,.32.19.26.26,0,0,1-.19.31l-.64.17.16.63a.26.26,0,0,1-.19.32.27.27,0,0,1-.33-.19Z" style="fill: rgb(55, 71, 79); transform-origin: 110.829px 264.684px;" id="ely0693hbmk" class="animable"></path><path d="M74.56,219.24a.21.21,0,0,1-.15.25l-.57.14c-.07.72-.23,2.6-.24,3.12a.48.48,0,0,1-.06.18.2.2,0,0,1-.12.08.24.24,0,0,1-.2,0l-1-.6c-.34-.23-.26-.4-.23-.43a.18.18,0,0,1,.1-.06.27.27,0,0,1,.19,0l.25.15.2.12.2.12.21.13c0-.5.21-2.46.26-3h0a.2.2,0,0,1,0-.08.17.17,0,0,1,.13-.1l.74-.19A.21.21,0,0,1,74.56,219.24Z" style="fill: rgb(55, 71, 79); transform-origin: 73.2627px 221.043px;" id="elfy0tou9hwm6" class="animable"></path><g id="elupgacbju3ta"><rect x="50.37" y="196.18" width="49.43" height="11.83" style="fill: rgb(255, 255, 255); transform-origin: 75.085px 202.095px; transform: rotate(-14.32deg);" class="animable"></rect></g></g><defs>     <filter id="active" height="200%">         <feMorphology in="SourceAlpha" result="DILATED" operator="dilate" radius="2"></feMorphology>                <feFlood flood-color="#32DFEC" flood-opacity="1" result="PINK"></feFlood>        <feComposite in="PINK" in2="DILATED" operator="in" result="OUTLINE"></feComposite>        <feMerge>            <feMergeNode in="OUTLINE"></feMergeNode>            <feMergeNode in="SourceGraphic"></feMergeNode>        </feMerge>    </filter>    <filter id="hover" height="200%">        <feMorphology in="SourceAlpha" result="DILATED" operator="dilate" radius="2"></feMorphology>                <feFlood flood-color="#ff0000" flood-opacity="0.5" result="PINK"></feFlood>        <feComposite in="PINK" in2="DILATED" operator="in" result="OUTLINE"></feComposite>        <feMerge>            <feMergeNode in="OUTLINE"></feMergeNode>            <feMergeNode in="SourceGraphic"></feMergeNode>        </feMerge>            <feColorMatrix type="matrix" values="0   0   0   0   0                0   1   0   0   0                0   0   0   0   0                0   0   0   1   0 "></feColorMatrix>    </filter></defs></svg>